#!OML:ASF E:\Style4\Style4.ASF
:FULLY-SPECIFIED
:DEGREES
1560
root -1.43018 18.2289 -0.92337 7.15255 -0.434863 0.559287
lowerback 8.37008 2.18559 -2.85129
upperback 6.41263 2.79332 -7.37737
thorax 2.24705 1.47368 -6.29642
lowerneck 2.7432 5.12537 -5.24487
upperneck 1.64395 6.79331 15.7378
head -0.727777 3.33288 5.45705
rclavicle 6.36111e-015 -1.90833e-014
rhumerus 64.0905 5.01964 -29.1679
rradius 72.4167
rwrist -65.5665
rhand 5.52076 -2.09074
rfingers 7.12502
rthumb 30.8666 -29.5176
lclavicle 6.36111e-015 -1.90833e-014
lhumerus 50.3938 -26.0334 96.1292
lradius 85.0454
lwrist 51.202
lhand -38.5489 42.7147
lfingers 7.12502
lthumb -11.5687 72.3754
rfemur -13.5774 -0.263361 23.7765
rtibia 17.6766
rfoot -11.2254 -17.6841
rtoes -3.57072
lfemur -17.1518 0.258076 -13.4186
ltibia 23.5383
lfoot -9.53391 13.6996
ltoes -21.3992
1561
root -1.43456 18.2253 -0.936521 7.2364 -0.108608 0.533968
lowerback 8.4237 2.18137 -2.88628
upperback 6.42736 2.78359 -7.34834
thorax 2.22865 1.46741 -6.24674
lowerneck 2.93765 5.05055 -5.24642
upperneck 1.58575 6.6972 15.8161
head -0.770276 3.27467 5.47884
rclavicle -4.77083e-015 1.90833e-014
rhumerus 64.2277 5.26804 -28.7048
rradius 71.9624
rwrist -65.9408
rhand 5.62859 -2.48678
rfingers 7.12502
rthumb 30.9693 -29.8941
lclavicle -4.77083e-015 1.90833e-014
lhumerus 50.0496 -25.763 96.3924
lradius 84.873
lwrist 52.1366
lhand -38.4877 42.9303
lfingers 7.12502
lthumb -11.5096 72.5943
rfemur -13.816 -0.378545 23.8369
rtibia 17.8978
rfoot -11.3313 -17.8394
rtoes -3.37618
lfemur -17.2919 0.02932 -13.3562
ltibia 23.3977
lfoot -9.54109 13.6887
ltoes -21.2063
1562
root -1.43803 18.2206 -0.953029 7.31966 0.2597 0.492676
lowerback 8.51346 2.15811 -2.91293
upperback 6.44132 2.74611 -7.30646
thorax 2.1866 1.44708 -6.1878
lowerneck 2.88982 5.02497 -5.3524
upperneck 1.81642 6.63509 16.0092
head -0.70041 3.25336 5.5627
rclavicle 3.18055e-014 -4.45278e-014
rhumerus 64.3715 5.52293 -28.4353
rradius 71.3647
rwrist -66.0816
rhand 6.21499 -2.75101
rfingers 7.12502
rthumb 31.5282 -30.0505
lclavicle 3.18055e-014 -4.45278e-014
lhumerus 49.6957 -25.4628 96.6309
lradius 84.7195
lwrist 53.0954
lhand -38.4049 43.2136
lfingers 7.12502
lthumb -11.4298 72.882
rfemur -14.059 -0.588846 23.9339
rtibia 18.0933
rfoot -11.3638 -18.0201
rtoes -3.42182
lfemur -17.4695 -0.181674 -13.2776
ltibia 23.2903
lfoot -9.60572 13.5919
ltoes -20.5634
1563
root -1.44112 18.2159 -0.967073 7.3303 0.665147 0.392441
lowerback 8.69372 2.19597 -2.78204
upperback 6.5275 2.7992 -7.26262
thorax 2.1868 1.47927 -6.22568
lowerneck 2.6331 4.87801 -5.41956
upperneck 1.99701 6.41742 16.1404
head -0.588624 3.16281 5.63138
rclavicle 2.14687e-014 2.38542e-014
rhumerus 64.3485 5.57751 -28.0905
rradius 70.8179
rwrist -66.1199
rhand 6.77827 -3.04115
rfingers 7.12502
rthumb 32.0646 -30.2341
lclavicle 2.14687e-014 2.38542e-014
lhumerus 49.483 -25.4691 96.8688
lradius 84.4432
lwrist 53.8294
lhand -38.5284 43.7407
lfingers 7.12502
lthumb -11.5489 73.4025
rfemur -14.2175 -0.778152 24.0931
rtibia 18.2996
rfoot -11.4316 -18.2586
rtoes -3.67668
lfemur -17.5851 -0.416818 -13.1344
ltibia 23.2028
lfoot -9.64733 13.4702
ltoes -20.3565
1564
root -1.44297 18.2129 -0.978714 7.34177 1.05163 0.285017
lowerback 8.8513 2.23879 -2.62063
upperback 6.62631 2.86398 -7.21738
thorax 2.21568 1.5188 -6.27929
lowerneck 2.67141 4.66831 -5.35258
upperneck 1.77173 6.15994 16.0373
head -0.625512 3.026 5.59305
rclavicle 4.29375e-014 2.38542e-014
rhumerus 64.3553 5.59276 -27.6398
rradius 70.3645
rwrist -65.9996
rhand 7.14712 -3.57772
rfingers 7.12502
rthumb 32.4157 -30.6994
lclavicle 4.29375e-014 2.38542e-014
lhumerus 49.2401 -25.5272 97.124
lradius 84.1484
lwrist 54.5565
lhand -38.8239 44.2006
lfingers 7.12502
lthumb -11.8339 73.8463
rfemur -14.3907 -0.992333 24.2543
rtibia 18.5446
rfoot -11.5013 -18.4417
rtoes -3.83337
lfemur -17.6883 -0.677493 -12.9782
ltibia 23.101
lfoot -9.67194 13.3591
ltoes -20.0155
